<svg xmlns="http://www.w3.org/2000/svg" viewBox="0 0 163.782 35.822"><g fill="#FFF"><path d="M2.672 13.322h-.58C.735 13.322 0 12.586 0 11.192v-.968c0-1.394.736-2.13 2.13-2.13h.736V4.492c0-1.394.736-2.13 2.13-2.13h2.246c1.394 0 2.13.736 2.13 2.13v3.602h2.053c1.394 0 2.13.736 2.13 2.13v.968c0 1.394-.736 2.13-2.09 2.13H9.37v6.042c0 1.704 1.123 2.362 2.324 2.517 1.55.195 2.13.66 2.13 2.13v1.744c0 1.588-.968 2.13-2.75 2.13-2.943 0-8.404-1.355-8.404-7.28V13.32zM18.125 30.168c.31.078.697.194 1.162.194 1.2 0 2.285-.968 2.75-2.13l.388-.93-7.397-17.078c-.658-1.472 0-2.48 1.626-2.48h3.02c1.28 0 2.054.582 2.44 1.744l2.363 7.436c.35 1.084.736 3.098.736 3.098h.078s.388-1.897.66-2.982l2.013-7.474c.35-1.24 1.123-1.82 2.4-1.82h2.828c1.55 0 2.248.968 1.705 2.44l-7.28 19.634c-1.666 4.454-5.15 6.003-8.327 6.003-1.045 0-2.014-.232-2.788-.503-1.278-.426-1.588-1.55-1.046-2.79l.503-1.122c.542-1.2 1.355-1.395 2.168-1.24zM37.413 9.875c0-1.394.736-2.13 2.13-2.13h1.743c1.394 0 2.13.736 2.13 1.743v.426c0 .193-.04.387-.04.387h.08s1.82-3.02 6.04-3.02c5.423 0 8.985 4.26 8.985 10.457 0 6.312-3.988 10.417-9.293 10.417-3.602 0-5.073-2.285-5.073-2.285h-.077s.077.696.077 1.703v5.73c0 1.396-.736 2.13-2.13 2.13h-2.44c-1.394 0-2.13-.734-2.13-2.13V9.876zm10.418 12.74c2.092 0 3.913-1.703 3.913-4.762 0-2.982-1.588-4.918-3.912-4.918-2.013 0-3.91 1.472-3.91 4.918 0 2.4 1.277 4.763 3.91 4.763zM61.387 9.875c0-1.394.736-2.13 2.13-2.13h2.44c1.394 0 2.13.736 2.13 2.13V25.56c0 1.394-.736 2.13-2.13 2.13h-2.44c-1.394 0-2.13-.736-2.13-2.13V9.875zm.078-6.777V2.13c0-1.395.735-2.13 2.13-2.13h2.285c1.394 0 2.13.735 2.13 2.13v.968c0 1.394-.736 2.13-2.13 2.13h-2.285c-1.395 0-2.13-.736-2.13-2.13zM72.038 9.875c0-1.394.736-2.13 2.13-2.13h2.17c1.393 0 2.09.736 2.09 2.13v.35c0 .193-.04.502-.04.502h.08c.928-1.55 2.826-3.447 6.35-3.447 4.028 0 7.165 1.86 7.165 7.475V25.56c0 1.394-.736 2.13-2.13 2.13h-2.44c-1.394 0-2.13-.736-2.13-2.13v-9.565c0-1.86-.736-2.634-2.208-2.634-2.982 0-4.337 2.48-4.337 5.307v6.894c0 1.395-.736 2.13-2.13 2.13h-2.44c-1.394 0-2.13-.735-2.13-2.13V9.876zM100.426 29.703c.968.31 2.014.542 3.563.542 2.516 0 4.685-.89 4.685-3.834v-1.006c0-.232.04-.736.04-.736h-.078c-1.084 1.587-2.518 2.44-4.88 2.44-6.12 0-9.1-4.92-9.1-10.03 0-5.074 2.903-9.8 9.14-9.8 4.26 0 5.46 2.596 5.46 2.596h.076s-.04-.155-.04-.387V9.41c0-.93.737-1.665 2.13-1.665h1.82c1.395 0 2.13.736 2.13 2.13V25.87c0 7.28-5.924 9.952-10.998 9.952-2.324 0-4.725-.465-5.925-.968-1.316-.542-1.665-1.394-1.162-2.75l.426-1.162c.505-1.316 1.28-1.704 2.712-1.24zm8.404-12.547c0-3.524-1.86-4.3-3.873-4.3-2.362 0-3.563 1.705-3.563 3.99 0 2.48 1.162 4.686 3.834 4.686 1.743 0 3.602-.89 3.602-4.376z"/><g><path d="M121.13 26.26c0-.437.218-.655.655-.655h.754c.436 0 .654.218.654.655v.774c0 .437-.218.655-.655.655h-.755c-.437 0-.655-.22-.655-.656v-.774zM130.518 17.406c1.688 0 2.78.655 3.315 1.072.337.218.357.556.12.893l-.2.3c-.238.356-.516.376-.893.158-.417-.298-1.19-.754-2.243-.754-2.025 0-3.494 1.51-3.494 3.573 0 2.045 1.47 3.613 3.534 3.613 1.21 0 2.084-.556 2.56-.913.358-.238.656-.2.894.178l.16.298c.198.337.14.655-.18.874-.555.457-1.766 1.23-3.573 1.23-3.156 0-5.36-2.242-5.36-5.26 0-2.978 2.225-5.26 5.36-5.26zM140.977 17.406c2.998 0 5.42 2.204 5.42 5.24 0 3.058-2.423 5.282-5.42 5.282s-5.4-2.224-5.4-5.28c0-3.038 2.402-5.242 5.4-5.242zm0 8.854c1.906 0 3.454-1.51 3.454-3.613 0-2.084-1.547-3.573-3.453-3.573-1.886 0-3.454 1.49-3.454 3.573 0 2.104 1.567 3.613 3.454 3.613zM148.516 18.3c0-.437.238-.655.655-.655h.557c.437 0 .655.218.655.655v.893c0 .298-.06.576-.06.576h.04c.496-1.172 1.906-2.363 3.494-2.363 1.688 0 2.66.774 3.018 2.283h.04c.536-1.17 1.925-2.283 3.553-2.283 2.283 0 3.315 1.29 3.315 3.85v5.778c0 .437-.22.655-.655.655h-.615c-.417 0-.655-.218-.655-.655v-5.36c0-1.41-.278-2.52-1.767-2.52-1.866 0-2.978 1.924-2.978 3.85v4.03c0 .437-.218.655-.635.655h-.635c-.417 0-.635-.218-.635-.655v-5.36c0-1.31-.198-2.52-1.747-2.52-1.906 0-3.017 1.984-3.017 3.85v4.03c0 .437-.22.655-.655.655h-.615c-.417 0-.655-.218-.655-.655V18.3z"/></g></g></svg>